<svg width="187" height="48" viewBox="0 0 187 48" fill="none" xmlns="http://www.w3.org/2000/svg">
<rect width="187" height="48" fill="black"/>
<path d="M14.1705 12.7273H21.1364L24.6591 27.1364H24.9318L33.2273 12.7273H40.1932L36.3295 36H30.8523L33.2273 21.7045H33.0341L25.1023 35.8523H21.6136L18.3864 21.625H18.1932L15.7841 36H10.3068L14.1705 12.7273ZM44.7131 36.2955C43.607 36.2955 42.6525 36.1098 41.8494 35.7386C41.054 35.3598 40.4706 34.7879 40.0994 34.0227C39.7358 33.2576 39.6487 32.303 39.8381 31.1591C40.0047 30.1894 40.3116 29.375 40.7585 28.7159C41.2131 28.0492 41.7699 27.5076 42.429 27.0909C43.0956 26.6742 43.8381 26.3561 44.6562 26.1364C45.4744 25.9167 46.3305 25.7689 47.2244 25.6932C48.2244 25.6023 49.035 25.5038 49.6562 25.3977C50.285 25.2917 50.7547 25.1439 51.0653 24.9545C51.3759 24.7576 51.5653 24.4848 51.6335 24.1364V24.0795C51.7244 23.4962 51.5994 23.0455 51.2585 22.7273C50.9176 22.4091 50.4062 22.25 49.7244 22.25C48.9972 22.25 48.3759 22.4091 47.8608 22.7273C47.3456 23.0455 46.9858 23.4848 46.7812 24.0455L41.6903 23.8636C42.0085 22.803 42.554 21.8561 43.3267 21.0227C44.0994 20.1818 45.0805 19.5227 46.2699 19.0455C47.4669 18.5606 48.8494 18.3182 50.4176 18.3182C51.5237 18.3182 52.5237 18.4508 53.4176 18.7159C54.3116 18.9735 55.0653 19.3523 55.679 19.8523C56.3002 20.3447 56.7434 20.9508 57.0085 21.6705C57.2737 22.3902 57.3305 23.2121 57.179 24.1364L55.1903 36H49.9631L50.3722 33.5682H50.2358C49.8267 34.1591 49.3456 34.6591 48.7926 35.0682C48.2472 35.4773 47.6335 35.7841 46.9517 35.9886C46.2699 36.1932 45.5237 36.2955 44.7131 36.2955ZM47.054 32.6591C47.6373 32.6591 48.1903 32.5379 48.7131 32.2955C49.2358 32.053 49.6752 31.7197 50.0312 31.2955C50.3949 30.8636 50.6259 30.3636 50.7244 29.7955L50.9858 28.1364C50.8267 28.2197 50.6259 28.2955 50.3835 28.3636C50.1411 28.4318 49.8835 28.4962 49.6108 28.5568C49.3381 28.6098 49.0578 28.6629 48.7699 28.7159C48.4896 28.7614 48.2206 28.803 47.9631 28.8409C47.4176 28.9242 46.9441 29.053 46.5426 29.2273C46.1411 29.4015 45.8191 29.6288 45.5767 29.9091C45.3419 30.1818 45.1979 30.5076 45.1449 30.8864C45.054 31.4545 45.1866 31.8939 45.5426 32.2045C45.8987 32.5076 46.4025 32.6591 47.054 32.6591ZM58.5881 36L61.4972 18.5455H67.054L64.1449 36H58.5881ZM64.6676 16.5C63.8797 16.5 63.2396 16.2386 62.7472 15.7159C62.2547 15.1932 62.0616 14.5682 62.1676 13.8409C62.2737 13.1061 62.6449 12.4811 63.2812 11.9659C63.9176 11.4508 64.6259 11.1932 65.4062 11.1932C66.1941 11.1932 66.8267 11.4508 67.304 11.9659C67.7888 12.4811 67.9782 13.1061 67.8722 13.8409C67.7813 14.5682 67.4176 15.1932 66.7812 15.7159C66.1525 16.2386 65.4479 16.5 64.6676 16.5ZM77.1023 12.7273L73.2386 36H67.6818L71.5455 12.7273H77.1023ZM76.7756 36L80.6392 12.7273H90.2528C91.9953 12.7273 93.4498 13.0417 94.6165 13.6705C95.7831 14.2917 96.6127 15.1856 97.1051 16.3523C97.5975 17.5114 97.7112 18.8864 97.446 20.4773C97.1884 22.0833 96.6127 23.4508 95.7188 24.5795C94.8324 25.7008 93.6884 26.5568 92.2869 27.1477C90.893 27.7386 89.3097 28.0341 87.5369 28.0341H81.4574L82.2074 23.6023H87.2415C88.0824 23.6023 88.8097 23.4924 89.4233 23.2727C90.0369 23.0455 90.5256 22.7045 90.8892 22.25C91.2604 21.7879 91.5066 21.197 91.6278 20.4773C91.7415 19.7576 91.6884 19.1629 91.4688 18.6932C91.2566 18.2159 90.8816 17.8598 90.3438 17.625C89.8134 17.3826 89.1316 17.2614 88.2983 17.2614H85.5256L82.4006 36H76.7756ZM91.6392 25.3636L95.6733 36H89.5369L85.6278 25.3636H91.6392ZM98.2131 36L101.122 18.5455H106.679L103.77 36H98.2131ZM104.293 16.5C103.505 16.5 102.865 16.2386 102.372 15.7159C101.88 15.1932 101.687 14.5682 101.793 13.8409C101.899 13.1061 102.27 12.4811 102.906 11.9659C103.543 11.4508 104.251 11.1932 105.031 11.1932C105.819 11.1932 106.452 11.4508 106.929 11.9659C107.414 12.4811 107.603 13.1061 107.497 13.8409C107.406 14.5682 107.043 15.1932 106.406 15.7159C105.777 16.2386 105.073 16.5 104.293 16.5ZM106.25 42.5455L110.273 18.5455H115.773L115.284 21.5341H115.455C115.758 21.0038 116.159 20.4924 116.659 20C117.167 19.5076 117.777 19.1061 118.489 18.7955C119.201 18.4773 120.015 18.3182 120.932 18.3182C122.144 18.3182 123.223 18.6364 124.17 19.2727C125.117 19.9091 125.807 20.8902 126.239 22.2159C126.67 23.5417 126.716 25.2311 126.375 27.2841C126.049 29.2614 125.458 30.9167 124.602 32.25C123.754 33.5833 122.746 34.5833 121.58 35.25C120.413 35.9167 119.189 36.25 117.909 36.25C117.03 36.25 116.288 36.1061 115.682 35.8182C115.083 35.5303 114.61 35.1515 114.261 34.6818C113.913 34.2121 113.67 33.7083 113.534 33.1705H113.375L111.83 42.5455H106.25ZM114.261 27.2727C114.11 28.2121 114.102 29.0303 114.239 29.7273C114.375 30.4242 114.652 30.9659 115.068 31.3523C115.492 31.7311 116.042 31.9205 116.716 31.9205C117.398 31.9205 118.004 31.7311 118.534 31.3523C119.072 30.9659 119.523 30.4242 119.886 29.7273C120.25 29.0303 120.515 28.2121 120.682 27.2727C120.826 26.3333 120.83 25.5189 120.693 24.8295C120.564 24.1402 120.295 23.6061 119.886 23.2273C119.477 22.8485 118.928 22.6591 118.239 22.6591C117.564 22.6591 116.951 22.8447 116.398 23.2159C115.852 23.5871 115.398 24.1174 115.034 24.8068C114.67 25.4962 114.413 26.3182 114.261 27.2727ZM126.781 42.5455L130.804 18.5455H136.304L135.815 21.5341H135.986C136.289 21.0038 136.69 20.4924 137.19 20C137.698 19.5076 138.308 19.1061 139.02 18.7955C139.732 18.4773 140.546 18.3182 141.463 18.3182C142.675 18.3182 143.755 18.6364 144.702 19.2727C145.649 19.9091 146.338 20.8902 146.77 22.2159C147.202 23.5417 147.247 25.2311 146.906 27.2841C146.58 29.2614 145.99 30.9167 145.134 32.25C144.285 33.5833 143.277 34.5833 142.111 35.25C140.944 35.9167 139.721 36.25 138.44 36.25C137.562 36.25 136.819 36.1061 136.213 35.8182C135.615 35.5303 135.141 35.1515 134.793 34.6818C134.444 34.2121 134.202 33.7083 134.065 33.1705H133.906L132.361 42.5455H126.781ZM134.793 27.2727C134.641 28.2121 134.634 29.0303 134.77 29.7273C134.906 30.4242 135.183 30.9659 135.599 31.3523C136.024 31.7311 136.573 31.9205 137.247 31.9205C137.929 31.9205 138.535 31.7311 139.065 31.3523C139.603 30.9659 140.054 30.4242 140.418 29.7273C140.781 29.0303 141.046 28.2121 141.213 27.2727C141.357 26.3333 141.361 25.5189 141.224 24.8295C141.096 24.1402 140.827 23.6061 140.418 23.2273C140.009 22.8485 139.459 22.6591 138.77 22.6591C138.096 22.6591 137.482 22.8447 136.929 23.2159C136.384 23.5871 135.929 24.1174 135.565 24.8068C135.202 25.4962 134.944 26.3182 134.793 27.2727ZM157.79 12.7273L153.926 36H148.369L152.233 12.7273H157.79ZM165.577 36.3295C163.751 36.3295 162.236 35.9697 161.031 35.25C159.834 34.5227 158.993 33.4886 158.509 32.1477C158.024 30.7992 157.937 29.197 158.247 27.3409C158.55 25.5379 159.168 23.9621 160.099 22.6136C161.039 21.2576 162.221 20.2045 163.645 19.4545C165.069 18.697 166.656 18.3182 168.406 18.3182C169.649 18.3182 170.751 18.5114 171.713 18.8977C172.675 19.2841 173.471 19.8598 174.099 20.625C174.728 21.3826 175.156 22.3144 175.384 23.4205C175.611 24.5265 175.603 25.7955 175.361 27.2273L175.145 28.6136H159.986L160.497 25.3864H170.497C170.588 24.7955 170.539 24.2689 170.349 23.8068C170.16 23.3447 169.853 22.9848 169.429 22.7273C169.012 22.4621 168.501 22.3295 167.895 22.3295C167.281 22.3295 166.705 22.4735 166.168 22.7614C165.637 23.0417 165.187 23.4205 164.815 23.8977C164.444 24.375 164.202 24.9129 164.088 25.5114L163.486 28.8182C163.365 29.553 163.399 30.1818 163.588 30.7045C163.777 31.2273 164.103 31.6288 164.565 31.9091C165.027 32.1818 165.622 32.3182 166.349 32.3182C166.834 32.3182 167.289 32.2538 167.713 32.125C168.137 31.9886 168.516 31.7879 168.849 31.5227C169.19 31.25 169.467 30.9205 169.679 30.5341L174.747 30.6818C174.338 31.8258 173.705 32.822 172.849 33.6705C171.993 34.5114 170.948 35.1667 169.713 35.6364C168.486 36.0985 167.107 36.3295 165.577 36.3295Z" fill="white"/>
</svg>
